<mxfile host="app.diagrams.net" agent="Mozilla/5.0 (Windows NT 10.0; Win64; x64) AppleWebKit/537.36 (KHTML, like Gecko) Chrome/131.0.0.0 Safari/537.36" version="25.0.3">
  <diagram name="Page-1" id="0EcyL4GLM626TENgBlaa">
    <mxGraphModel dx="1595" dy="1192" grid="0" gridSize="10" guides="1" tooltips="1" connect="1" arrows="1" fold="1" page="0" pageScale="1" pageWidth="850" pageHeight="1100" math="0" shadow="0">
      <root>
        <mxCell id="0" />
        <mxCell id="1" parent="0" />
        <mxCell id="5EF0c4QNpWWcO23JbO0d-2" value="Client" style="shape=umlActor;verticalLabelPosition=bottom;verticalAlign=top;html=1;outlineConnect=0;" vertex="1" parent="1">
          <mxGeometry x="-75.75" y="-103" width="61" height="88" as="geometry" />
        </mxCell>
        <mxCell id="5EF0c4QNpWWcO23JbO0d-5" value="Trainer" style="shape=umlActor;verticalLabelPosition=bottom;verticalAlign=top;html=1;outlineConnect=0;" vertex="1" parent="1">
          <mxGeometry x="-74" y="74" width="57.5" height="89" as="geometry" />
        </mxCell>
        <mxCell id="5EF0c4QNpWWcO23JbO0d-6" value="Admin" style="shape=umlActor;verticalLabelPosition=bottom;verticalAlign=top;html=1;outlineConnect=0;" vertex="1" parent="1">
          <mxGeometry x="-74" y="363" width="57.5" height="89" as="geometry" />
        </mxCell>
        <mxCell id="5EF0c4QNpWWcO23JbO0d-7" value="Autentificare/&lt;div&gt;Inregistrare&lt;/div&gt;" style="ellipse;whiteSpace=wrap;html=1;" vertex="1" parent="1">
          <mxGeometry x="100" y="-185" width="100" height="57" as="geometry" />
        </mxCell>
        <mxCell id="5EF0c4QNpWWcO23JbO0d-8" value="Vizualizare/Gestionare abonament" style="ellipse;whiteSpace=wrap;html=1;" vertex="1" parent="1">
          <mxGeometry x="100" y="-107" width="100" height="57" as="geometry" />
        </mxCell>
        <mxCell id="5EF0c4QNpWWcO23JbO0d-9" value="Programare activitati" style="ellipse;whiteSpace=wrap;html=1;" vertex="1" parent="1">
          <mxGeometry x="100" y="45" width="100" height="57" as="geometry" />
        </mxCell>
        <mxCell id="5EF0c4QNpWWcO23JbO0d-10" value="Monitorizare activitate" style="ellipse;whiteSpace=wrap;html=1;" vertex="1" parent="1">
          <mxGeometry x="105" y="439" width="100" height="57" as="geometry" />
        </mxCell>
        <mxCell id="5EF0c4QNpWWcO23JbO0d-11" value="Generare Plan alimentar" style="ellipse;whiteSpace=wrap;html=1;" vertex="1" parent="1">
          <mxGeometry x="100" y="198" width="100" height="57" as="geometry" />
        </mxCell>
        <mxCell id="5EF0c4QNpWWcO23JbO0d-12" value="Gestionare Utilizatori" style="ellipse;whiteSpace=wrap;html=1;" vertex="1" parent="1">
          <mxGeometry x="105" y="350" width="100" height="57" as="geometry" />
        </mxCell>
        <mxCell id="5EF0c4QNpWWcO23JbO0d-13" value="Accesare/Editare Profil" style="ellipse;whiteSpace=wrap;html=1;" vertex="1" parent="1">
          <mxGeometry x="100" y="121" width="100" height="57" as="geometry" />
        </mxCell>
        <mxCell id="5EF0c4QNpWWcO23JbO0d-15" value="" style="endArrow=none;html=1;rounded=0;fontSize=12;startSize=8;endSize=8;curved=1;entryX=0;entryY=0.5;entryDx=0;entryDy=0;exitX=1;exitY=0.3333333333333333;exitDx=0;exitDy=0;exitPerimeter=0;" edge="1" parent="1" source="5EF0c4QNpWWcO23JbO0d-6" target="5EF0c4QNpWWcO23JbO0d-12">
          <mxGeometry width="50" height="50" relative="1" as="geometry">
            <mxPoint x="30.5" y="400" as="sourcePoint" />
            <mxPoint x="80.5" y="350" as="targetPoint" />
          </mxGeometry>
        </mxCell>
        <mxCell id="5EF0c4QNpWWcO23JbO0d-16" value="" style="endArrow=none;html=1;rounded=0;fontSize=12;startSize=8;endSize=8;curved=1;entryX=0.034;entryY=0.59;entryDx=0;entryDy=0;entryPerimeter=0;exitX=1;exitY=0.3333333333333333;exitDx=0;exitDy=0;exitPerimeter=0;" edge="1" parent="1" source="5EF0c4QNpWWcO23JbO0d-6" target="5EF0c4QNpWWcO23JbO0d-10">
          <mxGeometry width="50" height="50" relative="1" as="geometry">
            <mxPoint x="30.5" y="400" as="sourcePoint" />
            <mxPoint x="80.5" y="350" as="targetPoint" />
          </mxGeometry>
        </mxCell>
        <mxCell id="5EF0c4QNpWWcO23JbO0d-17" value="" style="endArrow=none;html=1;rounded=0;fontSize=12;startSize=8;endSize=8;curved=1;exitX=1;exitY=0.3333333333333333;exitDx=0;exitDy=0;exitPerimeter=0;entryX=0;entryY=0.5;entryDx=0;entryDy=0;" edge="1" parent="1" source="5EF0c4QNpWWcO23JbO0d-5" target="5EF0c4QNpWWcO23JbO0d-13">
          <mxGeometry width="50" height="50" relative="1" as="geometry">
            <mxPoint x="70" y="124" as="sourcePoint" />
            <mxPoint x="120" y="74" as="targetPoint" />
          </mxGeometry>
        </mxCell>
        <mxCell id="5EF0c4QNpWWcO23JbO0d-18" value="" style="endArrow=none;html=1;rounded=0;fontSize=12;startSize=8;endSize=8;curved=1;exitX=1;exitY=0.3333333333333333;exitDx=0;exitDy=0;exitPerimeter=0;entryX=0;entryY=0.5;entryDx=0;entryDy=0;" edge="1" parent="1" source="5EF0c4QNpWWcO23JbO0d-5" target="5EF0c4QNpWWcO23JbO0d-7">
          <mxGeometry width="50" height="50" relative="1" as="geometry">
            <mxPoint x="70" y="124" as="sourcePoint" />
            <mxPoint x="120" y="74" as="targetPoint" />
          </mxGeometry>
        </mxCell>
        <mxCell id="5EF0c4QNpWWcO23JbO0d-19" value="Vizualizare/Gestionare clienti" style="ellipse;whiteSpace=wrap;html=1;" vertex="1" parent="1">
          <mxGeometry x="100" y="-29" width="100" height="57" as="geometry" />
        </mxCell>
        <mxCell id="5EF0c4QNpWWcO23JbO0d-20" value="" style="endArrow=none;html=1;rounded=0;fontSize=12;startSize=8;endSize=8;curved=1;exitX=1;exitY=0.3333333333333333;exitDx=0;exitDy=0;exitPerimeter=0;entryX=0;entryY=0.5;entryDx=0;entryDy=0;" edge="1" parent="1" source="5EF0c4QNpWWcO23JbO0d-5" target="5EF0c4QNpWWcO23JbO0d-19">
          <mxGeometry width="50" height="50" relative="1" as="geometry">
            <mxPoint x="44" y="147" as="sourcePoint" />
            <mxPoint x="94" y="97" as="targetPoint" />
          </mxGeometry>
        </mxCell>
        <mxCell id="5EF0c4QNpWWcO23JbO0d-21" value="" style="endArrow=none;html=1;rounded=0;fontSize=12;startSize=8;endSize=8;curved=1;exitX=1;exitY=0.3333333333333333;exitDx=0;exitDy=0;exitPerimeter=0;entryX=0;entryY=0.5;entryDx=0;entryDy=0;" edge="1" parent="1" source="5EF0c4QNpWWcO23JbO0d-2" target="5EF0c4QNpWWcO23JbO0d-7">
          <mxGeometry width="50" height="50" relative="1" as="geometry">
            <mxPoint x="44" y="202" as="sourcePoint" />
            <mxPoint x="94" y="152" as="targetPoint" />
          </mxGeometry>
        </mxCell>
        <mxCell id="5EF0c4QNpWWcO23JbO0d-22" value="" style="endArrow=none;html=1;rounded=0;fontSize=12;startSize=8;endSize=8;curved=1;exitX=1;exitY=0.3333333333333333;exitDx=0;exitDy=0;exitPerimeter=0;entryX=0;entryY=0.5;entryDx=0;entryDy=0;" edge="1" parent="1" source="5EF0c4QNpWWcO23JbO0d-2" target="5EF0c4QNpWWcO23JbO0d-9">
          <mxGeometry width="50" height="50" relative="1" as="geometry">
            <mxPoint x="117" y="133" as="sourcePoint" />
            <mxPoint x="167" y="83" as="targetPoint" />
          </mxGeometry>
        </mxCell>
        <mxCell id="5EF0c4QNpWWcO23JbO0d-23" value="" style="endArrow=none;html=1;rounded=0;fontSize=12;startSize=8;endSize=8;curved=1;exitX=1;exitY=0.3333333333333333;exitDx=0;exitDy=0;exitPerimeter=0;" edge="1" parent="1" source="5EF0c4QNpWWcO23JbO0d-2" target="5EF0c4QNpWWcO23JbO0d-8">
          <mxGeometry width="50" height="50" relative="1" as="geometry">
            <mxPoint x="117" y="133" as="sourcePoint" />
            <mxPoint x="167" y="83" as="targetPoint" />
          </mxGeometry>
        </mxCell>
        <mxCell id="5EF0c4QNpWWcO23JbO0d-24" value="" style="endArrow=none;html=1;rounded=0;fontSize=12;startSize=8;endSize=8;curved=1;entryX=0;entryY=0.5;entryDx=0;entryDy=0;" edge="1" parent="1" target="5EF0c4QNpWWcO23JbO0d-11">
          <mxGeometry width="50" height="50" relative="1" as="geometry">
            <mxPoint x="-12" y="-75" as="sourcePoint" />
            <mxPoint x="167" y="134" as="targetPoint" />
          </mxGeometry>
        </mxCell>
        <mxCell id="5EF0c4QNpWWcO23JbO0d-25" value="" style="endArrow=none;html=1;rounded=0;fontSize=12;startSize=8;endSize=8;curved=1;exitX=1;exitY=0.3333333333333333;exitDx=0;exitDy=0;exitPerimeter=0;entryX=0.008;entryY=0.327;entryDx=0;entryDy=0;entryPerimeter=0;" edge="1" parent="1" source="5EF0c4QNpWWcO23JbO0d-2" target="5EF0c4QNpWWcO23JbO0d-13">
          <mxGeometry width="50" height="50" relative="1" as="geometry">
            <mxPoint x="117" y="184" as="sourcePoint" />
            <mxPoint x="167" y="134" as="targetPoint" />
          </mxGeometry>
        </mxCell>
        <mxCell id="5EF0c4QNpWWcO23JbO0d-27" value="Diagrama use case" style="text;strokeColor=none;fillColor=none;html=1;align=center;verticalAlign=middle;whiteSpace=wrap;rounded=0;fontSize=16;" vertex="1" parent="1">
          <mxGeometry x="-328" y="-169" width="283" height="30" as="geometry" />
        </mxCell>
      </root>
    </mxGraphModel>
  </diagram>
</mxfile>
